<svg xmlns="http://www.w3.org/2000/svg" xmlns:xlink="http://www.w3.org/1999/xlink" id="svg" width="400" height="401.5748031496063" viewBox="0, 0, 400,401.5748031496063" version="1.1"><g id="svgg"><path id="path0" d="M358.400 99.000 C 357.850 99.314,356.997 99.578,356.503 99.586 C 356.010 99.594,355.382 99.960,355.107 100.400 C 354.832 100.840,354.477 101.200,354.317 101.200 C 354.157 101.200,353.361 101.866,352.548 102.679 C 351.734 103.493,350.746 104.182,350.352 104.211 C 349.493 104.274,344.197 108.541,341.400 111.422 C 340.300 112.555,338.815 113.733,338.100 114.039 C 337.385 114.345,336.800 114.706,336.800 114.842 C 336.800 115.815,331.437 120.000,330.189 120.000 C 329.844 120.000,329.165 120.407,328.681 120.905 C 328.196 121.403,326.900 122.524,325.800 123.396 C 324.700 124.268,323.620 125.202,323.400 125.471 C 322.966 126.001,320.641 127.836,319.182 128.800 C 318.683 129.130,317.438 130.210,316.417 131.200 C 315.395 132.190,314.045 133.360,313.415 133.800 C 312.786 134.240,311.717 135.111,311.040 135.735 C 310.363 136.358,309.220 137.115,308.500 137.416 C 307.779 137.717,306.319 138.872,305.255 139.982 C 304.191 141.092,303.033 142.000,302.683 142.000 C 302.332 142.000,301.810 142.334,301.523 142.743 C 301.235 143.151,300.631 143.602,300.180 143.744 C 299.729 143.887,298.305 144.993,297.016 146.202 C 295.727 147.411,294.542 148.400,294.382 148.400 C 294.223 148.400,293.825 148.805,293.498 149.300 C 292.484 150.835,290.688 152.436,289.354 152.994 C 288.651 153.287,287.544 154.084,286.893 154.765 C 286.243 155.446,285.142 156.201,284.447 156.444 C 283.752 156.686,283.001 157.225,282.777 157.642 C 282.554 158.059,282.224 158.400,282.043 158.400 C 281.861 158.400,280.763 159.283,279.601 160.362 C 278.440 161.441,277.039 162.565,276.488 162.860 C 275.938 163.154,274.538 164.297,273.377 165.398 C 270.503 168.125,269.674 168.720,268.342 169.013 C 267.714 169.151,267.200 169.519,267.200 169.832 C 267.200 170.144,267.046 170.400,266.858 170.400 C 266.670 170.400,265.398 171.480,264.033 172.800 C 262.667 174.120,261.381 175.200,261.175 175.200 C 260.969 175.200,260.800 175.341,260.800 175.514 C 260.800 175.686,260.215 176.165,259.500 176.577 C 258.059 177.409,257.727 177.683,255.362 179.997 C 254.462 180.879,253.571 181.600,253.384 181.600 C 252.933 181.600,250.060 183.559,248.800 184.726 C 248.250 185.236,247.284 185.926,246.652 186.261 C 245.651 186.792,244.703 187.666,242.944 189.678 C 241.996 190.762,238.423 194.000,238.175 194.000 C 238.032 194.000,237.381 194.450,236.727 195.000 C 236.073 195.550,235.322 196.000,235.058 196.000 C 234.794 196.000,234.280 196.315,233.915 196.700 C 231.952 198.774,230.440 199.925,229.099 200.367 C 228.274 200.639,227.600 201.124,227.600 201.444 C 227.600 201.763,227.330 202.129,227.000 202.255 C 226.670 202.382,226.400 202.747,226.400 203.066 C 226.400 203.386,226.235 203.545,226.034 203.421 C 225.832 203.296,225.132 203.646,224.476 204.197 C 223.821 204.749,223.115 205.200,222.907 205.200 C 222.700 205.200,221.790 205.875,220.886 206.700 C 219.982 207.525,219.007 208.400,218.721 208.644 C 218.434 208.888,217.644 209.698,216.965 210.444 C 215.383 212.182,213.140 214.083,211.869 214.763 C 211.321 215.056,210.306 215.814,209.612 216.448 C 208.918 217.082,208.165 217.600,207.939 217.600 C 207.474 217.600,205.899 218.759,203.690 220.727 C 200.915 223.200,200.091 223.125,197.398 220.159 C 197.178 219.916,196.548 219.575,195.998 219.402 C 195.449 219.230,194.300 218.411,193.444 217.583 C 192.588 216.755,191.378 215.976,190.755 215.851 C 190.016 215.703,188.186 214.178,185.492 211.464 C 183.220 209.176,180.830 207.028,180.181 206.691 C 179.531 206.354,177.765 204.987,176.255 203.652 C 174.746 202.318,172.541 200.679,171.355 200.010 C 170.170 199.341,169.200 198.606,169.200 198.376 C 169.200 198.147,168.552 197.688,167.759 197.357 C 166.112 196.669,166.096 196.657,162.534 193.300 C 161.074 191.925,159.742 190.800,159.572 190.800 C 159.402 190.800,158.477 190.035,157.516 189.100 C 154.095 185.772,151.779 183.885,150.273 183.199 C 149.433 182.817,147.903 181.698,146.873 180.712 C 145.843 179.726,144.438 178.630,143.751 178.276 C 143.065 177.922,141.265 176.457,139.751 175.020 C 138.238 173.583,136.864 172.405,136.699 172.403 C 136.533 172.402,135.543 171.591,134.499 170.602 C 133.454 169.613,132.435 168.803,132.234 168.802 C 132.032 168.801,131.582 168.524,131.234 168.187 C 129.929 166.926,128.188 165.601,127.834 165.600 C 127.632 165.600,127.182 165.342,126.834 165.026 C 126.485 164.710,124.924 163.291,123.365 161.872 C 121.805 160.453,119.825 158.841,118.965 158.289 C 117.572 157.397,115.775 155.942,114.000 154.269 C 113.670 153.958,112.788 153.392,112.041 153.011 C 111.293 152.630,109.478 151.122,108.007 149.659 C 104.777 146.448,103.287 145.202,102.666 145.195 C 102.410 145.192,101.469 144.517,100.575 143.695 C 96.996 140.401,95.435 139.174,94.539 138.949 C 94.023 138.819,93.600 138.565,93.600 138.384 C 93.600 138.202,93.240 137.940,92.800 137.800 C 92.360 137.660,92.000 137.310,92.000 137.022 C 92.000 136.733,91.415 136.266,90.700 135.983 C 89.985 135.700,89.130 135.242,88.800 134.966 C 88.470 134.689,87.930 134.404,87.600 134.332 C 86.981 134.196,85.600 132.876,85.600 132.420 C 85.600 132.058,82.993 129.453,82.689 129.511 C 82.551 129.538,81.317 128.488,79.946 127.180 C 78.575 125.871,77.253 124.800,77.009 124.800 C 76.765 124.800,75.493 123.797,74.182 122.571 C 71.813 120.353,70.240 119.404,69.595 119.803 C 69.410 119.918,69.143 119.649,69.002 119.206 C 68.861 118.763,68.497 118.400,68.193 118.400 C 67.889 118.400,67.494 118.139,67.315 117.819 C 66.850 116.988,62.404 113.600,61.779 113.600 C 61.490 113.600,61.140 113.240,61.000 112.800 C 60.860 112.360,60.596 112.000,60.412 112.000 C 60.229 112.000,58.338 110.290,56.210 108.200 C 54.083 106.110,52.014 104.400,51.614 104.400 C 51.213 104.400,50.782 104.130,50.655 103.800 C 50.226 102.682,48.826 103.118,48.126 104.586 C 47.435 106.035,47.908 109.200,48.816 109.200 C 49.027 109.200,49.200 109.413,49.200 109.674 C 49.200 109.935,49.547 110.520,49.970 110.974 C 50.394 111.428,51.213 112.745,51.791 113.900 C 52.369 115.055,52.991 116.000,53.173 116.000 C 53.354 116.000,53.727 116.540,54.000 117.200 C 54.273 117.860,54.660 118.400,54.858 118.400 C 55.057 118.400,55.387 118.838,55.590 119.374 C 55.794 119.910,56.358 120.806,56.844 121.364 C 57.329 121.923,58.408 123.419,59.242 124.690 C 60.762 127.008,62.827 129.788,64.061 131.177 C 64.424 131.586,64.832 132.269,64.967 132.695 C 65.102 133.120,65.844 134.173,66.617 135.034 C 67.389 135.895,68.841 137.805,69.844 139.279 C 70.847 140.752,71.922 142.169,72.234 142.428 C 72.545 142.686,72.800 143.160,72.800 143.480 C 72.800 143.801,73.520 144.776,74.400 145.647 C 75.280 146.518,76.000 147.469,76.000 147.759 C 76.000 148.050,76.696 149.078,77.546 150.044 C 78.397 151.010,79.212 152.341,79.357 153.000 C 79.503 153.660,80.229 154.793,80.972 155.518 C 81.715 156.243,82.435 157.286,82.573 157.836 C 82.711 158.386,83.439 159.503,84.190 160.318 C 84.942 161.133,86.480 162.790,87.609 164.000 C 88.737 165.210,89.915 166.681,90.225 167.269 C 90.535 167.857,91.331 168.932,91.994 169.658 C 92.657 170.384,93.200 171.207,93.200 171.486 C 93.200 171.765,93.560 172.218,94.000 172.493 C 94.440 172.768,94.800 173.377,94.800 173.847 C 94.800 174.317,95.082 174.936,95.426 175.222 C 95.771 175.508,96.308 176.236,96.621 176.840 C 96.933 177.444,97.731 178.532,98.394 179.258 C 99.057 179.984,99.600 180.906,99.600 181.307 C 99.600 181.708,100.005 182.445,100.500 182.945 C 102.110 184.570,104.400 187.524,104.400 187.976 C 104.400 188.219,105.097 189.179,105.948 190.109 C 106.799 191.039,107.612 192.160,107.754 192.600 C 107.896 193.040,108.837 194.300,109.845 195.400 C 110.853 196.500,111.953 197.940,112.289 198.600 C 112.625 199.260,113.469 200.520,114.164 201.400 C 115.286 202.819,116.004 203.820,117.400 205.911 C 117.620 206.241,118.224 206.981,118.741 207.555 C 119.259 208.130,119.954 209.275,120.285 210.100 C 120.616 210.925,121.051 211.600,121.252 211.600 C 121.453 211.600,121.830 212.095,122.091 212.700 C 122.352 213.305,123.068 214.456,123.682 215.258 C 124.297 216.059,124.800 216.882,124.800 217.085 C 124.800 217.289,125.250 217.847,125.800 218.325 C 126.350 218.803,126.800 219.336,126.800 219.508 C 126.800 219.680,127.514 220.537,128.387 221.411 C 129.260 222.285,129.980 223.225,129.987 223.500 C 129.994 223.775,130.184 224.000,130.410 224.000 C 130.635 224.000,130.992 224.453,131.202 225.006 C 131.634 226.141,133.239 228.529,133.710 228.737 C 133.880 228.812,134.285 229.442,134.609 230.137 C 134.933 230.831,135.557 231.940,135.995 232.600 C 136.433 233.260,137.013 234.250,137.284 234.800 C 137.555 235.350,138.547 236.762,139.489 237.937 C 140.430 239.112,141.200 240.228,141.200 240.416 C 141.200 240.605,141.666 241.261,142.235 241.875 C 142.804 242.489,143.513 243.574,143.810 244.287 C 144.458 245.838,144.917 246.430,146.947 248.343 C 147.797 249.144,148.915 250.717,149.429 251.837 C 149.944 252.957,150.643 254.104,150.983 254.386 C 151.322 254.667,151.600 255.124,151.600 255.401 C 151.600 255.677,152.410 256.947,153.400 258.222 C 154.390 259.497,155.200 260.769,155.200 261.050 C 155.200 261.331,155.425 261.704,155.700 261.880 C 156.233 262.221,156.735 262.960,157.953 265.200 C 158.372 265.970,159.088 266.938,159.544 267.350 C 160.000 267.763,160.994 269.322,161.753 270.815 C 163.185 273.634,165.945 277.600,166.475 277.600 C 166.643 277.600,167.072 278.167,167.431 278.859 C 167.789 279.552,169.053 281.432,170.241 283.038 C 171.428 284.644,172.400 286.083,172.400 286.238 C 172.400 286.392,173.030 287.286,173.800 288.226 C 174.570 289.166,175.200 290.146,175.200 290.404 C 175.200 290.663,175.560 291.331,176.000 291.891 C 176.440 292.450,176.800 293.123,176.800 293.386 C 176.800 293.649,177.517 294.660,178.394 295.632 C 179.271 296.604,179.991 297.570,179.994 297.778 C 180.000 298.183,181.870 301.051,182.700 301.929 C 182.975 302.219,183.200 302.716,183.200 303.032 C 183.200 303.349,183.560 303.916,184.000 304.293 C 184.440 304.670,184.800 305.199,184.800 305.469 C 184.800 305.739,185.046 306.104,185.346 306.280 C 185.646 306.456,186.189 307.140,186.552 307.800 C 187.346 309.244,189.619 312.498,191.114 314.331 C 191.711 315.064,192.450 316.144,192.757 316.731 C 193.063 317.319,193.796 318.430,194.385 319.200 C 194.975 319.970,195.688 321.177,195.970 321.883 C 197.020 324.510,201.062 324.519,202.584 321.897 C 202.999 321.184,203.577 320.456,203.869 320.280 C 204.161 320.104,204.400 319.793,204.400 319.588 C 204.400 319.384,205.119 318.268,205.998 317.108 C 206.877 315.949,207.597 314.757,207.598 314.460 C 207.599 314.163,208.230 313.290,209.000 312.520 C 209.770 311.750,210.400 310.864,210.400 310.551 C 210.400 310.238,211.120 309.201,212.000 308.246 C 212.880 307.292,213.600 306.306,213.600 306.055 C 213.600 305.805,213.759 305.600,213.954 305.600 C 214.149 305.600,214.601 304.984,214.958 304.232 C 215.315 303.480,215.740 302.805,215.904 302.732 C 216.272 302.568,218.164 299.647,218.515 298.700 C 218.658 298.315,218.947 298.000,219.156 298.000 C 219.366 298.000,219.732 297.415,219.968 296.700 C 220.205 295.985,221.029 294.692,221.799 293.827 C 222.570 292.962,223.200 292.026,223.200 291.747 C 223.200 291.165,224.213 289.558,228.697 283.030 C 229.744 281.507,230.780 279.984,231.000 279.647 C 231.220 279.310,231.613 278.800,231.874 278.515 C 232.134 278.229,232.462 277.636,232.601 277.198 C 232.740 276.759,233.004 276.400,233.188 276.400 C 233.683 276.400,237.198 271.548,237.460 270.502 C 237.585 270.006,237.830 269.600,238.004 269.600 C 238.179 269.600,238.517 269.039,238.756 268.354 C 238.995 267.668,239.745 266.453,240.422 265.654 C 242.189 263.569,244.312 260.426,245.054 258.800 C 245.405 258.030,246.301 256.724,247.046 255.899 C 247.791 255.073,248.400 254.152,248.400 253.853 C 248.400 253.553,248.733 252.879,249.140 252.354 C 249.547 251.829,250.042 250.916,250.240 250.325 C 250.438 249.734,251.690 248.114,253.021 246.725 C 254.353 245.336,255.740 243.560,256.103 242.778 C 256.466 241.996,257.177 240.907,257.682 240.357 C 258.187 239.807,258.870 238.827,259.200 238.179 C 259.530 237.530,260.392 236.370,261.116 235.600 C 261.839 234.830,262.537 233.705,262.666 233.100 C 262.795 232.495,263.045 232.000,263.223 232.000 C 263.401 232.000,263.673 231.595,263.828 231.100 C 264.194 229.929,265.955 227.402,267.764 225.450 C 268.554 224.597,269.200 223.715,269.200 223.491 C 269.200 223.266,270.742 221.483,272.626 219.528 C 274.510 217.573,276.301 215.378,276.605 214.650 C 276.909 213.922,277.798 212.560,278.579 211.625 C 279.361 210.690,280.000 209.736,280.000 209.507 C 280.000 209.277,280.731 208.259,281.625 207.245 C 283.540 205.071,283.620 204.960,284.400 203.400 C 284.730 202.740,285.854 201.343,286.897 200.295 C 287.940 199.247,289.050 197.776,289.363 197.026 C 289.677 196.276,290.385 195.366,290.937 195.005 C 291.488 194.643,292.804 193.054,293.859 191.474 C 294.915 189.893,296.653 187.610,297.721 186.400 C 298.789 185.190,299.944 183.660,300.286 183.000 C 300.629 182.340,301.514 181.124,302.255 180.299 C 302.995 179.473,303.600 178.611,303.600 178.383 C 303.600 178.156,304.320 177.220,305.200 176.304 C 306.080 175.388,306.800 174.405,306.800 174.119 C 306.800 173.834,306.980 173.600,307.200 173.600 C 307.420 173.600,307.600 173.353,307.600 173.051 C 307.600 172.432,310.778 168.342,312.935 166.185 C 313.718 165.402,314.464 164.427,314.594 164.018 C 314.724 163.609,315.094 163.173,315.415 163.050 C 315.737 162.926,316.000 162.594,316.000 162.313 C 316.000 162.031,316.985 160.810,318.188 159.600 C 319.391 158.390,320.381 157.189,320.388 156.931 C 320.394 156.673,320.850 155.927,321.400 155.273 C 321.950 154.619,322.400 153.885,322.400 153.642 C 322.400 153.399,322.558 153.200,322.751 153.200 C 323.107 153.200,323.986 151.380,324.141 150.321 C 324.225 149.751,326.263 147.567,327.306 146.928 C 327.602 146.748,328.143 145.955,328.509 145.166 C 328.875 144.377,330.526 142.328,332.177 140.611 C 333.828 138.894,335.095 137.354,334.993 137.189 C 334.891 137.023,335.255 136.594,335.803 136.235 C 336.352 135.875,336.800 135.241,336.800 134.825 C 336.800 134.409,337.430 133.420,338.200 132.627 C 338.970 131.834,339.600 130.990,339.600 130.750 C 339.600 130.511,340.053 129.750,340.606 129.058 C 341.619 127.792,341.834 127.531,343.524 125.525 C 344.032 124.921,344.475 124.062,344.509 123.614 C 344.543 123.166,344.892 122.698,345.285 122.573 C 345.678 122.448,346.000 122.200,346.000 122.022 C 346.000 121.845,346.675 120.961,347.500 120.059 C 348.325 119.158,349.531 117.561,350.179 116.510 C 350.828 115.460,351.593 114.456,351.879 114.280 C 352.166 114.104,352.400 113.714,352.400 113.413 C 352.400 113.112,353.108 112.266,353.973 111.533 C 354.838 110.800,355.603 109.860,355.673 109.444 C 355.743 109.028,356.835 107.604,358.100 106.278 C 359.769 104.529,360.400 103.564,360.400 102.758 C 360.400 102.147,360.580 101.536,360.800 101.400 C 362.767 100.184,360.425 97.842,358.400 99.000 M354.000 106.400 C 354.000 106.620,353.820 106.800,353.600 106.800 C 353.380 106.800,353.200 107.041,353.200 107.335 C 353.200 107.629,352.390 108.629,351.400 109.557 C 350.410 110.485,349.600 111.508,349.600 111.830 C 349.600 112.418,349.279 112.871,343.400 120.568 C 341.640 122.872,339.570 125.680,338.800 126.809 C 338.030 127.937,336.635 129.824,335.700 131.003 C 334.765 132.182,334.000 133.405,334.000 133.722 C 334.000 134.039,333.235 135.007,332.300 135.874 C 330.564 137.483,327.600 140.948,327.600 141.367 C 327.600 141.495,327.317 141.915,326.970 142.300 C 326.325 143.017,322.035 148.658,320.600 150.676 C 320.161 151.294,319.481 152.394,319.089 153.119 C 318.698 153.845,317.618 155.391,316.689 156.554 C 315.760 157.718,314.730 159.102,314.400 159.630 C 314.070 160.158,312.777 161.672,311.526 162.995 C 310.275 164.318,308.885 165.850,308.437 166.400 C 305.916 169.495,304.380 171.673,303.880 172.861 C 303.570 173.597,302.704 174.930,301.955 175.822 C 301.207 176.713,299.442 179.008,298.035 180.922 C 296.627 182.835,295.323 184.400,295.137 184.400 C 294.952 184.400,294.800 184.592,294.800 184.827 C 294.800 185.339,293.125 187.578,291.200 189.640 C 289.311 191.662,288.400 192.878,288.398 193.381 C 288.397 193.612,287.812 194.437,287.098 195.215 C 285.810 196.619,284.594 198.235,283.773 199.634 C 283.360 200.337,281.234 203.003,280.000 204.365 C 279.670 204.729,278.860 205.831,278.200 206.813 C 277.540 207.796,276.871 208.658,276.713 208.729 C 276.555 208.800,275.853 209.880,275.154 211.129 C 273.723 213.686,271.242 216.826,269.300 218.537 C 268.585 219.167,268.000 219.908,268.000 220.183 C 268.000 220.458,267.595 221.140,267.100 221.699 C 264.855 224.233,263.375 226.155,263.089 226.909 C 262.918 227.359,262.527 227.924,262.221 228.164 C 261.914 228.404,261.153 229.522,260.531 230.649 C 259.909 231.776,258.783 233.576,258.029 234.649 C 257.275 235.722,255.899 237.721,254.971 239.091 C 254.043 240.461,252.757 242.025,252.113 242.566 C 251.469 243.108,250.421 244.327,249.783 245.275 C 249.144 246.224,248.234 247.483,247.760 248.072 C 247.286 248.662,246.501 249.922,246.016 250.872 C 244.755 253.343,238.832 262.667,237.296 264.600 C 236.125 266.074,234.849 268.101,233.922 269.963 C 233.328 271.153,231.978 273.123,230.922 274.340 C 228.823 276.757,228.750 276.857,225.724 281.449 C 224.582 283.182,223.412 284.857,223.124 285.171 C 222.836 285.485,222.330 286.227,222.000 286.820 C 221.670 287.414,221.062 288.507,220.649 289.250 C 218.820 292.539,212.053 302.405,210.214 304.463 C 209.101 305.707,207.600 307.867,206.878 309.263 C 205.291 312.328,200.850 318.755,199.907 319.350 C 199.252 319.763,196.800 318.023,196.800 317.145 C 196.800 316.977,196.215 316.002,195.500 314.977 C 193.336 311.876,192.836 311.068,192.050 309.400 C 191.636 308.520,190.806 307.350,190.206 306.800 C 189.606 306.250,187.200 302.920,184.860 299.400 C 182.520 295.880,180.494 292.910,180.358 292.800 C 180.221 292.690,179.510 291.443,178.777 290.029 C 178.045 288.616,176.850 286.679,176.123 285.726 C 175.395 284.773,174.800 283.920,174.800 283.830 C 174.800 283.377,170.640 277.530,169.880 276.913 C 169.396 276.521,168.186 274.940,167.192 273.400 C 164.775 269.657,164.477 269.168,163.901 268.000 C 163.322 266.825,159.847 261.642,157.586 258.581 C 156.714 257.400,156.000 256.269,156.000 256.066 C 156.000 255.864,155.734 255.477,155.408 255.207 C 155.083 254.937,154.543 254.195,154.208 253.558 C 153.874 252.921,153.295 251.817,152.923 251.104 C 151.826 249.005,150.681 247.452,148.911 245.664 C 147.996 244.741,146.370 242.683,145.297 241.092 C 144.225 239.502,142.346 236.740,141.122 234.956 C 138.986 231.842,138.219 230.577,137.146 228.400 C 136.875 227.850,135.966 226.558,135.127 225.528 C 134.287 224.499,133.600 223.562,133.600 223.446 C 133.600 223.004,131.471 220.124,129.869 218.400 C 127.842 216.218,126.000 213.785,126.000 213.289 C 126.000 213.088,125.640 212.598,125.200 212.200 C 124.760 211.802,124.400 211.215,124.400 210.896 C 124.400 210.577,123.942 209.750,123.383 209.058 C 122.824 208.366,122.099 207.440,121.772 207.000 C 121.445 206.560,120.373 205.134,119.389 203.830 C 118.405 202.527,117.600 201.287,117.600 201.074 C 117.600 200.862,116.643 199.499,115.474 198.044 C 114.305 196.590,113.218 195.130,113.058 194.800 C 112.194 193.011,110.637 190.732,109.400 189.447 C 107.857 187.845,105.200 184.255,105.200 183.773 C 105.200 183.505,104.930 183.182,104.600 183.055 C 104.270 182.929,103.998 182.594,103.995 182.313 C 103.992 182.031,103.272 181.027,102.395 180.083 C 101.518 179.138,100.800 178.209,100.800 178.019 C 100.800 177.828,100.111 176.800,99.268 175.734 C 98.425 174.667,97.612 173.301,97.460 172.698 C 97.309 172.094,97.030 171.600,96.841 171.600 C 96.652 171.600,96.273 171.060,96.000 170.400 C 95.727 169.740,95.367 169.200,95.200 169.200 C 95.033 169.200,94.673 168.660,94.400 168.000 C 94.127 167.340,93.757 166.800,93.578 166.800 C 93.400 166.800,93.148 166.465,93.018 166.056 C 92.888 165.647,91.702 164.188,90.383 162.815 C 89.063 161.441,87.815 160.002,87.609 159.617 C 87.403 159.232,86.642 158.194,85.917 157.310 C 85.193 156.427,84.330 155.300,84.000 154.806 C 83.670 154.312,83.085 153.495,82.700 152.991 C 82.315 152.486,82.000 151.853,82.000 151.584 C 82.000 150.716,79.401 146.900,76.300 143.213 C 75.527 142.294,74.000 139.988,74.000 139.740 C 74.000 139.517,72.497 137.550,71.449 136.400 C 71.148 136.070,70.790 135.440,70.653 135.000 C 70.517 134.560,69.819 133.520,69.103 132.690 C 68.386 131.859,67.493 130.779,67.117 130.290 C 66.741 129.800,65.976 128.834,65.417 128.142 C 64.858 127.450,64.400 126.746,64.400 126.576 C 64.400 126.406,64.131 125.982,63.802 125.634 C 62.697 124.463,61.200 122.487,61.200 122.200 C 61.200 122.043,60.639 121.207,59.954 120.342 C 57.621 117.396,55.200 113.539,55.200 112.769 C 55.200 111.763,56.254 111.779,56.796 112.793 C 57.260 113.660,66.064 120.739,68.859 122.492 C 69.816 123.093,70.960 123.813,71.400 124.092 C 71.840 124.372,72.344 124.825,72.520 125.100 C 72.696 125.375,73.092 125.600,73.400 125.600 C 73.708 125.600,74.104 125.854,74.280 126.164 C 74.456 126.474,75.770 127.657,77.200 128.793 C 78.630 129.929,81.216 132.195,82.947 133.829 C 84.678 135.463,86.343 136.800,86.647 136.800 C 86.951 136.800,87.200 136.989,87.200 137.219 C 87.200 137.450,87.695 137.856,88.300 138.121 C 89.661 138.717,91.558 139.974,92.486 140.893 C 92.871 141.273,95.753 143.629,98.893 146.127 C 102.032 148.625,105.161 151.329,105.846 152.136 C 107.186 153.713,109.731 155.600,110.519 155.600 C 110.785 155.600,111.529 156.158,112.173 156.841 C 112.817 157.523,114.034 158.516,114.876 159.048 C 115.719 159.580,117.364 160.881,118.532 161.938 C 119.699 162.996,121.633 164.516,122.827 165.317 C 124.022 166.119,125.644 167.365,126.431 168.087 C 127.218 168.809,128.679 169.979,129.677 170.686 C 130.676 171.394,132.115 172.564,132.875 173.286 C 135.163 175.460,137.237 177.146,139.375 178.572 C 140.489 179.316,142.390 180.840,143.600 181.959 C 144.810 183.079,146.025 183.996,146.300 183.998 C 146.575 183.999,146.800 184.151,146.800 184.335 C 146.800 184.631,151.554 187.934,152.600 188.365 C 152.820 188.456,154.620 190.145,156.600 192.119 C 158.580 194.093,160.650 195.995,161.200 196.345 C 161.750 196.695,162.344 197.210,162.520 197.490 C 162.696 197.771,163.027 198.000,163.256 198.000 C 163.485 198.000,164.621 198.810,165.779 199.800 C 166.938 200.790,167.993 201.600,168.123 201.600 C 168.504 201.600,171.679 203.840,173.200 205.183 C 174.804 206.598,175.004 206.752,176.490 207.706 C 177.090 208.091,179.567 210.283,181.995 212.577 C 184.422 214.872,186.767 216.863,187.204 217.001 C 187.642 217.140,188.000 217.426,188.000 217.637 C 188.000 217.847,188.453 218.192,189.006 218.402 C 189.919 218.749,192.309 220.274,192.800 220.824 C 192.910 220.946,194.465 222.251,196.257 223.724 C 200.496 227.208,200.617 227.201,205.673 223.200 C 207.898 221.440,209.887 220.000,210.094 220.000 C 210.703 220.000,218.308 213.764,222.111 210.145 C 224.042 208.307,226.112 206.492,226.711 206.111 C 227.310 205.730,227.890 205.324,228.000 205.208 C 228.489 204.693,231.480 202.799,231.822 202.787 C 232.030 202.780,232.821 202.150,233.581 201.387 C 234.340 200.624,235.082 200.000,235.230 200.000 C 235.479 200.000,239.463 196.917,240.929 195.589 C 241.287 195.265,242.036 194.640,242.593 194.200 C 243.150 193.760,245.061 192.005,246.840 190.300 C 248.618 188.595,250.315 187.200,250.611 187.200 C 250.907 187.200,254.356 184.676,258.275 181.592 C 262.194 178.508,265.580 175.845,265.800 175.674 C 266.020 175.504,267.224 174.472,268.476 173.382 C 269.727 172.292,271.229 171.040,271.813 170.600 C 272.396 170.160,273.442 169.296,274.137 168.679 C 274.832 168.063,276.179 166.983,277.131 166.279 C 278.083 165.576,281.413 163.000,284.531 160.556 C 287.649 158.113,290.761 155.826,291.446 155.474 C 292.131 155.123,293.754 153.763,295.053 152.452 C 296.352 151.141,299.031 148.796,301.007 147.241 C 302.983 145.686,304.870 144.175,305.200 143.883 C 306.920 142.362,309.543 140.427,310.640 139.870 C 311.323 139.524,312.969 138.332,314.299 137.221 C 315.629 136.109,316.854 135.200,317.020 135.200 C 317.187 135.200,317.955 134.462,318.727 133.560 C 320.293 131.731,329.933 123.883,331.800 122.918 C 333.557 122.010,342.235 115.056,344.867 112.447 C 348.734 108.615,354.000 105.128,354.000 106.400 " stroke="none" fill="#a6a6a6" fill-rule="evenodd"/><path id="path1" d="M352.184 106.743 C 350.099 107.869,347.227 110.109,344.867 112.447 C 342.235 115.056,333.557 122.010,331.800 122.918 C 329.933 123.883,320.293 131.731,318.727 133.560 C 317.955 134.462,317.187 135.200,317.020 135.200 C 316.854 135.200,315.629 136.109,314.299 137.221 C 312.969 138.332,311.323 139.524,310.640 139.870 C 309.543 140.427,306.920 142.362,305.200 143.883 C 304.870 144.175,302.983 145.686,301.007 147.241 C 299.031 148.796,296.352 151.141,295.053 152.452 C 293.754 153.763,292.131 155.123,291.446 155.474 C 290.761 155.826,287.649 158.113,284.531 160.556 C 281.413 163.000,278.083 165.576,277.131 166.279 C 276.179 166.983,274.832 168.063,274.137 168.679 C 273.442 169.296,272.396 170.160,271.813 170.600 C 271.229 171.040,269.727 172.292,268.476 173.382 C 267.224 174.472,266.020 175.504,265.800 175.674 C 265.580 175.845,262.194 178.508,258.275 181.592 C 254.356 184.676,250.907 187.200,250.611 187.200 C 250.315 187.200,248.618 188.595,246.840 190.300 C 245.061 192.005,243.150 193.760,242.593 194.200 C 242.036 194.640,241.287 195.265,240.929 195.589 C 239.463 196.917,235.479 200.000,235.230 200.000 C 235.082 200.000,234.340 200.624,233.581 201.387 C 232.821 202.150,232.030 202.780,231.822 202.787 C 231.480 202.799,228.489 204.693,228.000 205.208 C 227.890 205.324,227.310 205.730,226.711 206.111 C 226.112 206.492,224.042 208.307,222.111 210.145 C 218.308 213.764,210.703 220.000,210.094 220.000 C 209.887 220.000,207.898 221.440,205.673 223.200 C 200.617 227.201,200.496 227.208,196.257 223.724 C 194.465 222.251,192.910 220.946,192.800 220.824 C 192.309 220.274,189.919 218.749,189.006 218.402 C 188.453 218.192,188.000 217.847,188.000 217.637 C 188.000 217.426,187.642 217.140,187.204 217.001 C 186.767 216.863,184.422 214.872,181.995 212.577 C 179.567 210.283,177.090 208.091,176.490 207.706 C 175.004 206.752,174.804 206.598,173.200 205.183 C 171.679 203.840,168.504 201.600,168.123 201.600 C 167.993 201.600,166.938 200.790,165.779 199.800 C 164.621 198.810,163.485 198.000,163.256 198.000 C 163.027 198.000,162.696 197.771,162.520 197.490 C 162.344 197.210,161.750 196.695,161.200 196.345 C 160.650 195.995,158.580 194.093,156.600 192.119 C 154.620 190.145,152.820 188.456,152.600 188.365 C 151.554 187.934,146.800 184.631,146.800 184.335 C 146.800 184.151,146.575 183.999,146.300 183.998 C 146.025 183.996,144.810 183.079,143.600 181.959 C 142.390 180.840,140.489 179.316,139.375 178.572 C 137.237 177.146,135.163 175.460,132.875 173.286 C 132.115 172.564,130.676 171.394,129.677 170.686 C 128.679 169.979,127.218 168.809,126.431 168.087 C 125.644 167.365,124.022 166.119,122.827 165.317 C 121.633 164.516,119.699 162.996,118.532 161.938 C 117.364 160.881,115.719 159.580,114.876 159.048 C 114.034 158.516,112.817 157.523,112.173 156.841 C 111.529 156.158,110.785 155.600,110.519 155.600 C 109.731 155.600,107.186 153.713,105.846 152.136 C 105.161 151.329,102.032 148.625,98.893 146.127 C 95.753 143.629,92.871 141.273,92.486 140.893 C 91.558 139.974,89.661 138.717,88.300 138.121 C 87.695 137.856,87.200 137.450,87.200 137.219 C 87.200 136.989,86.951 136.800,86.647 136.800 C 86.343 136.800,84.678 135.463,82.947 133.829 C 81.216 132.195,78.630 129.929,77.200 128.793 C 75.770 127.657,74.456 126.474,74.280 126.164 C 74.104 125.854,73.708 125.600,73.400 125.600 C 73.092 125.600,72.696 125.375,72.520 125.100 C 72.344 124.825,71.840 124.372,71.400 124.092 C 70.960 123.813,69.816 123.093,68.859 122.492 C 66.064 120.739,57.260 113.660,56.796 112.793 C 56.254 111.779,55.200 111.763,55.200 112.769 C 55.200 113.539,57.621 117.396,59.954 120.342 C 60.639 121.207,61.200 122.043,61.200 122.200 C 61.200 122.487,62.697 124.463,63.802 125.634 C 64.131 125.982,64.400 126.406,64.400 126.576 C 64.400 126.746,64.858 127.450,65.417 128.142 C 65.976 128.834,66.741 129.800,67.117 130.290 C 67.493 130.779,68.386 131.859,69.103 132.690 C 69.819 133.520,70.517 134.560,70.653 135.000 C 70.790 135.440,71.148 136.070,71.449 136.400 C 72.497 137.550,74.000 139.517,74.000 139.740 C 74.000 139.988,75.527 142.294,76.300 143.213 C 79.401 146.900,82.000 150.716,82.000 151.584 C 82.000 151.853,82.315 152.486,82.700 152.991 C 83.085 153.495,83.670 154.312,84.000 154.806 C 84.330 155.300,85.193 156.427,85.917 157.310 C 86.642 158.194,87.403 159.232,87.609 159.617 C 87.815 160.002,89.063 161.441,90.383 162.815 C 91.702 164.188,92.888 165.647,93.018 166.056 C 93.148 166.465,93.400 166.800,93.578 166.800 C 93.757 166.800,94.127 167.340,94.400 168.000 C 94.673 168.660,95.033 169.200,95.200 169.200 C 95.367 169.200,95.727 169.740,96.000 170.400 C 96.273 171.060,96.652 171.600,96.841 171.600 C 97.030 171.600,97.309 172.094,97.460 172.698 C 97.612 173.301,98.425 174.667,99.268 175.734 C 100.111 176.800,100.800 177.828,100.800 178.019 C 100.800 178.209,101.518 179.138,102.395 180.083 C 103.272 181.027,103.992 182.031,103.995 182.313 C 103.998 182.594,104.270 182.929,104.600 183.055 C 104.930 183.182,105.200 183.505,105.200 183.773 C 105.200 184.255,107.857 187.845,109.400 189.447 C 110.637 190.732,112.194 193.011,113.058 194.800 C 113.218 195.130,114.305 196.590,115.474 198.044 C 116.643 199.499,117.600 200.862,117.600 201.074 C 117.600 201.287,118.405 202.527,119.389 203.830 C 120.373 205.134,121.445 206.560,121.772 207.000 C 122.099 207.440,122.824 208.366,123.383 209.058 C 123.942 209.750,124.400 210.577,124.400 210.896 C 124.400 211.215,124.760 211.802,125.200 212.200 C 125.640 212.598,126.000 213.088,126.000 213.289 C 126.000 213.785,127.842 216.218,129.869 218.400 C 131.471 220.124,133.600 223.004,133.600 223.446 C 133.600 223.562,134.287 224.499,135.127 225.528 C 135.966 226.558,136.875 227.850,137.146 228.400 C 138.219 230.577,138.986 231.842,141.122 234.956 C 142.346 236.740,144.225 239.502,145.297 241.092 C 146.370 242.683,147.996 244.741,148.911 245.664 C 150.681 247.452,151.826 249.005,152.923 251.104 C 153.295 251.817,153.874 252.921,154.208 253.558 C 154.543 254.195,155.083 254.937,155.408 255.207 C 155.734 255.477,156.000 255.864,156.000 256.066 C 156.000 256.269,156.714 257.400,157.586 258.581 C 159.847 261.642,163.322 266.825,163.901 268.000 C 164.477 269.168,164.775 269.657,167.192 273.400 C 168.186 274.940,169.396 276.521,169.880 276.913 C 170.640 277.530,174.800 283.377,174.800 283.830 C 174.800 283.920,175.395 284.773,176.123 285.726 C 176.850 286.679,178.045 288.616,178.777 290.029 C 179.510 291.443,180.221 292.690,180.358 292.800 C 180.494 292.910,182.520 295.880,184.860 299.400 C 187.200 302.920,189.606 306.250,190.206 306.800 C 190.806 307.350,191.636 308.520,192.050 309.400 C 192.836 311.068,193.336 311.876,195.500 314.977 C 196.215 316.002,196.800 316.977,196.800 317.145 C 196.800 318.023,199.252 319.763,199.907 319.350 C 200.850 318.755,205.291 312.328,206.878 309.263 C 207.600 307.867,209.101 305.707,210.214 304.463 C 212.053 302.405,218.820 292.539,220.649 289.250 C 221.062 288.507,221.670 287.414,222.000 286.820 C 222.330 286.227,222.836 285.485,223.124 285.171 C 223.412 284.857,224.582 283.182,225.724 281.449 C 228.750 276.857,228.823 276.757,230.922 274.340 C 231.978 273.123,233.328 271.153,233.922 269.963 C 234.849 268.101,236.125 266.074,237.296 264.600 C 238.832 262.667,244.755 253.343,246.016 250.872 C 246.501 249.922,247.286 248.662,247.760 248.072 C 248.234 247.483,249.144 246.224,249.783 245.275 C 250.421 244.327,251.469 243.108,252.113 242.566 C 252.757 242.025,254.043 240.461,254.971 239.091 C 255.899 237.721,257.275 235.722,258.029 234.649 C 258.783 233.576,259.909 231.776,260.531 230.649 C 261.153 229.522,261.914 228.404,262.221 228.164 C 262.527 227.924,262.918 227.359,263.089 226.909 C 263.375 226.155,264.855 224.233,267.100 221.699 C 267.595 221.140,268.000 220.458,268.000 220.183 C 268.000 219.908,268.585 219.167,269.300 218.537 C 271.242 216.826,273.723 213.686,275.154 211.129 C 275.853 209.880,276.555 208.800,276.713 208.729 C 276.871 208.658,277.540 207.796,278.200 206.813 C 278.860 205.831,279.670 204.729,280.000 204.365 C 281.234 203.003,283.360 200.337,283.773 199.634 C 284.594 198.235,285.810 196.619,287.098 195.215 C 287.812 194.437,288.397 193.612,288.398 193.381 C 288.400 192.878,289.311 191.662,291.200 189.640 C 293.125 187.578,294.800 185.339,294.800 184.827 C 294.800 184.592,294.952 184.400,295.137 184.400 C 295.323 184.400,296.627 182.835,298.035 180.922 C 299.442 179.008,301.207 176.713,301.955 175.822 C 302.704 174.930,303.570 173.597,303.880 172.861 C 304.380 171.673,305.916 169.495,308.437 166.400 C 308.885 165.850,310.275 164.318,311.526 162.995 C 312.777 161.672,314.070 160.158,314.400 159.630 C 314.730 159.102,315.760 157.718,316.689 156.554 C 317.618 155.391,318.698 153.845,319.089 153.119 C 319.481 152.394,320.161 151.294,320.600 150.676 C 322.035 148.658,326.325 143.017,326.970 142.300 C 327.317 141.915,327.600 141.495,327.600 141.367 C 327.600 140.948,330.564 137.483,332.300 135.874 C 333.235 135.007,334.000 134.039,334.000 133.722 C 334.000 133.405,334.765 132.182,335.700 131.003 C 336.635 129.824,338.030 127.937,338.800 126.809 C 339.570 125.680,341.640 122.872,343.400 120.568 C 349.279 112.871,349.600 112.418,349.600 111.830 C 349.600 111.508,350.410 110.485,351.400 109.557 C 352.390 108.629,353.200 107.629,353.200 107.335 C 353.200 107.041,353.380 106.800,353.600 106.800 C 353.820 106.800,354.000 106.620,354.000 106.400 C 354.000 105.881,353.664 105.944,352.184 106.743 " stroke="none" fill="#fcfcfc" fill-rule="evenodd"/></g></svg>